<svg width="40" height="40" viewBox="0 0 40 40" fill="none" xmlns="http://www.w3.org/2000/svg">
<path d="M17.5694 5.50779e-07C17.3633 0.000109724 17.1639 0.0734233 17.0068 0.206868C16.8497 0.340314 16.7451 0.525215 16.7117 0.728601L15.8658 5.90693C14.8487 6.20278 13.8788 6.60198 12.9648 7.09918L8.6913 4.04721C8.52398 3.92775 8.31975 3.87141 8.11485 3.8882C7.90994 3.90499 7.71761 3.99382 7.57198 4.13893L4.18854 7.51868C4.04395 7.66336 3.95499 7.85436 3.93728 8.05812C3.91957 8.26189 3.97426 8.46537 4.09172 8.63281L7.09809 12.9331C6.59317 13.8524 6.1851 14.8277 5.88195 15.8543L0.725267 16.712C0.522485 16.7461 0.338366 16.851 0.205591 17.008C0.0728165 17.165 -2.33035e-05 17.364 1.4331e-06 17.5696V22.3522C-0.000369477 22.5566 0.071269 22.7546 0.202343 22.9115C0.333417 23.0683 0.51555 23.174 0.716774 23.2099L5.87686 24.1236C6.17836 25.1485 6.58384 26.1244 7.0896 27.0448L4.04586 31.3026C3.92639 31.4699 3.87004 31.6742 3.88684 31.879C3.90363 32.0839 3.99246 32.2763 4.13758 32.4219L7.51932 35.805C7.66369 35.9494 7.85428 36.0384 8.05768 36.0564C8.26109 36.0744 8.46435 36.0203 8.63185 35.9035L12.941 32.8872C13.8577 33.3874 14.83 33.7895 15.8505 34.088L16.7117 39.2731C16.7455 39.4762 16.8502 39.6607 17.0073 39.7938C17.1643 39.9269 17.3635 40 17.5694 40H22.3524C22.5571 40.0003 22.7553 39.9284 22.9122 39.797C23.0691 39.6656 23.1746 39.4831 23.2102 39.2816L24.1325 34.0761C25.1488 33.773 26.1165 33.365 27.0285 32.8618L31.3665 35.9052C31.5339 36.0227 31.7374 36.0774 31.9412 36.0597C32.145 36.042 32.336 35.953 32.4807 35.8084L35.8624 32.4236C36.0082 32.2775 36.0972 32.0844 36.1137 31.8788C36.1302 31.6732 36.073 31.4683 35.9524 31.301L32.8594 27.0075C33.354 26.1 33.7524 25.1382 34.0484 24.1287L39.2815 23.2116C39.4831 23.176 39.6656 23.0705 39.797 22.9136C39.9284 22.7568 40.0003 22.5586 40 22.3539V17.5713C39.9999 17.3652 39.9266 17.1658 39.7931 17.0088C39.6597 16.8517 39.4747 16.7471 39.2713 16.7137L34.0467 15.8594C33.7487 14.8512 33.3492 13.8911 32.8544 12.984L35.9049 8.63791C36.0223 8.47046 36.077 8.26698 36.0593 8.06322C36.0416 7.85946 35.9527 7.66845 35.8081 7.52378L32.4246 4.14232C32.2786 3.9966 32.0855 3.90754 31.8798 3.89105C31.6741 3.87456 31.4693 3.93172 31.3019 4.05231L27.02 7.13145C26.1076 6.63027 25.1393 6.22434 24.1206 5.92391L23.2102 0.720109C23.175 0.518279 23.0696 0.335368 22.9127 0.203625C22.7557 0.0718831 22.5573 -0.000229932 22.3524 5.50779e-07H17.5694ZM18.31 1.73913H21.6221L22.4883 6.68308C22.5171 6.8489 22.5935 7.00279 22.708 7.12609C22.8226 7.24939 22.9705 7.3368 23.1338 7.37772C24.4056 7.69464 25.6001 8.197 26.6904 8.857C26.8362 8.94531 27.0047 8.98886 27.175 8.98221C27.3454 8.97557 27.51 8.91903 27.6484 8.81963L31.718 5.89504L34.0603 8.23709L31.1626 12.3658C31.0658 12.5036 31.0111 12.6664 31.0051 12.8346C30.9991 13.0029 31.042 13.1692 31.1287 13.3135C31.7822 14.4013 32.2779 15.5882 32.5945 16.8529C32.6357 17.0176 32.7243 17.1667 32.8492 17.2817C32.9742 17.3967 33.1301 17.4726 33.2977 17.5L38.2607 18.3118V21.6236L33.2875 22.4966C33.1215 22.526 32.9677 22.6029 32.8446 22.7181C32.7216 22.8333 32.6347 22.9817 32.5945 23.1454C32.2815 24.4085 31.7855 25.5954 31.1321 26.6831C31.0443 26.8288 31.0013 26.9971 31.0082 27.167C31.0152 27.337 31.0718 27.5012 31.1711 27.6393L34.1096 31.7171L31.7673 34.0608L27.645 31.1685C27.5066 31.0715 27.3429 31.017 27.174 31.0116C27.0051 31.0061 26.8382 31.05 26.6938 31.1379C25.609 31.7979 24.4132 32.3026 23.1456 32.624C22.9832 32.6649 22.836 32.752 22.7217 32.8746C22.6075 32.9972 22.5312 33.1502 22.5019 33.3152L21.6238 38.2609H18.3066L17.4879 33.3373C17.46 33.1698 17.3837 33.0141 17.2684 32.8895C17.1532 32.7649 17.0039 32.6767 16.8391 32.6359C15.5665 32.3222 14.3666 31.8206 13.2688 31.1617C13.1247 31.0754 12.9586 31.0327 12.7907 31.0387C12.6228 31.0447 12.4603 31.0992 12.3227 31.1957L8.2327 34.0608L5.88875 31.7137L8.77962 27.6732C8.87842 27.5348 8.93445 27.3704 8.94079 27.2005C8.94713 27.0305 8.9035 26.8625 8.81529 26.7171C8.14913 25.6164 7.64532 24.4167 7.32739 23.1386C7.28671 22.9758 7.1998 22.8282 7.07714 22.7137C6.95448 22.5992 6.80131 22.5226 6.63609 22.4932L1.73928 21.6236V18.3067L6.6327 17.4932C6.79998 17.4655 6.9555 17.3894 7.08013 17.2745C7.20477 17.1595 7.29307 17.0106 7.33418 16.8461C7.65484 15.5636 8.15841 14.3641 8.82208 13.266C8.9096 13.1218 8.9533 12.9553 8.94788 12.7867C8.94245 12.6182 8.88812 12.4548 8.79151 12.3166L5.93461 8.2337L8.28026 5.88995L12.3346 8.78736C12.4725 8.88571 12.6362 8.94163 12.8055 8.94827C12.9747 8.95491 13.1423 8.91197 13.2875 8.82473C14.3794 8.16895 15.5821 7.67137 16.8561 7.35904C17.0217 7.31827 17.1716 7.22972 17.2873 7.1044C17.4029 6.97908 17.4792 6.82253 17.5066 6.65421L18.31 1.73913ZM20 13.0435C16.168 13.0435 13.0429 16.1683 13.0429 20C13.0429 23.8317 16.168 26.9565 20 26.9565C23.832 26.9565 26.9571 23.8317 26.9571 20C26.9571 16.1683 23.832 13.0435 20 13.0435ZM20 14.7826C22.892 14.7826 25.2178 17.1082 25.2178 20C25.2178 22.8918 22.892 25.2174 20 25.2174C17.108 25.2174 14.7822 22.8918 14.7822 20C14.7822 17.1082 17.108 14.7826 20 14.7826Z" fill="white"/>
</svg>
